# AST/ASF file generated using VICON BodyLanguage
# -----------------------------------------------
:version 1.10
:name VICON
:units
  mass 1.0
  length 0.45
  angle deg
:documentation
   .ast/.asf automatically generated from VICON data using
   VICON BodyBuilder and BodyLanguage model FoxedUp or BRILLIANT.MOD
:root
   order TX TY TZ RX RY RZ
   axis XYZ
   position 0 0 0  
   orientation 0 0 0 
:bonedata
  begin
     id 1 
     name lhipjoint
     direction 0.692814 -0.645514 0.321437 
     length 2.38754 
     axis 0 0 0  XYZ
  end
  begin
     id 2 
     name lfemur
     direction 0.34202 -0.939693 0  
     length 6.41921  
     axis 0 0 20  XYZ
    dof rx ry rz
    limits (-160.0 20.0)
           (-70.0 70.0)
           (-60.0 70.0)
  end
  begin
     id 3 
     name ltibia
     direction 0.34202 -0.939693 0   
     length 6.98247   
     axis 0 0 20   XYZ
    dof rx
    limits (-10.0 170.0)
  end
  begin
     id 4 
     name lfoot
     direction 0.0947186 -0.260237 0.960888   
     length 1.83034   
     axis -90 7.62852e-016 20   XYZ
    dof rx rz
    limits (-45.0 90.0)
           (-70.0 20.0)
  end
  begin
     id 5 
     name ltoes
     direction 1.53538e-011 -4.21952e-011 1   
     length 0.920499   
     axis -90 7.62852e-016 20   XYZ
    dof rx
    limits (-90.0 20.0)
  end
  begin
     id 6 
     name rhipjoint
     direction -0.631686 -0.693949 0.345555   
     length 2.2209  
     axis 0 0 0  XYZ 
  end
  begin
     id 7 
     name rfemur
     direction -0.34202 -0.939693 0   
     length 6.49542   
     axis 0 0 -20   XYZ
    dof rx ry rz
    limits (-160.0 20.0)
           (-70.0 70.0)
           (-70.0 60.0)
  end
  begin
     id 8 
     name rtibia
     direction -0.34202 -0.939693 0   
     length 7.21712   
     axis 0 0 -20   XYZ
    dof rx
    limits (-10.0 170.0)
 end
 begin
     id 9 
     name rfoot
     direction -0.0825378 -0.226771 0.970444   
     length 1.89724  
     axis -90 -7.62852e-016 -20   XYZ
    dof rx rz
    limits (-45.0 90.0)
           (-20.0 70.0)
  end
  begin
     id 10 
     name rtoes
     direction -1.53515e-011 -4.22016e-011 1   
     length 0.955868   
     axis -90 -7.62852e-016 -20   XYZ
    dof rx
    limits (-90.0 20.0)
  end
  begin
     id 11 
     name lowerback
     direction -0.0104711 0.984802 -0.173368   
     length 1.84931   
     axis 0 0 0   XYZ
    dof rx ry rz
    limits (-20.0 45.0)
           (-30.0 30.0)
           (-30.0 30.0)
  end
  begin
     id 12 
     name upperback
     direction -0.00286433 0.999996 -0.000382853   
     length 1.85768   
     axis 0 0 0   XYZ
    dof rx ry rz
    limits (-20.0 45.0)
           (-30.0 30.0)
           (-30.0 30.0)
  end
  begin
     id 13 
     name thorax
     direction 0.00167534 0.996793 0.0800069   
     length 1.92   
     axis 0 0 0   XYZ
    dof rx ry rz
    limits (-20.0 45.0)
           (-30.0 30.0)
           (-30.0 30.0)
  end
  begin
     id 14 
     name lowerneck
     direction -0.0672491 0.995415 0.068018   
     length 1.58923   
     axis 0 0 0   XYZ
    dof rx ry rz
    limits (-20.0 45.0)
           (-30.0 30.0)
           (-30.0 30.0)
  end
  begin
     id 15 
     name upperneck
     direction 0.0958019 0.982476 -0.159884   
     length 1.60189   
     axis 0 0 0   XYZ
    dof rx ry rz
    limits (-20.0 45.0)
           (-30.0 30.0)
           (-30.0 30.0)
  end
  begin
     id 16
     name head
     direction 0.032989 0.997338 -0.0650226  
     length 1.61681  
     axis 0 0 0   XYZ
    dof rx ry rz
    limits (-20.0 45.0)
           (-30.0 30.0)
           (-30.0 30.0)
  end
  begin
     id 17 
     name lclavicle
     direction 0.954279 0.298875 -0.00496069  
     length 2.99449  
     axis 0 0 0   XYZ
    dof ry rz
    limits (-20.0 10.0)
           (0.0 20.0)
  end
  begin
     id 18 
     name lhumerus
     direction 1 -4.48985e-011 -4.2057e-027   
     length 4.79185   
     axis 180 -30 -90   XYZ
    dof rx ry rz
    limits (-60.0 90.0)
           (-90.0 90.0)
           (-90.0 90.0)
  end
  begin
     id 19
     name lradius
     direction 1 -4.48945e-011 1.15441e-028   
     length 2.65553   
     axis 180 -30 -90   XYZ
    dof rx
    limits (-10.0 170.0)
  end
  begin
     id 20
     name lwrist
     direction 1 -4.4899e-011 4.8894e-028   
     length 1.32777   
     axis -2.56392e-016 90 90   XYZ
    dof ry
    limits (-180.0 0.0)
 end
  begin
     id 21 
     name lhand
     direction 1 -4.48908e-011 9.7788e-028   
     length 0.743904   
     axis -6.23971e-016 90 90   XYZ
    dof rx rz
    limits (-90.0 90.0)
           (-45.0 45.0)
  end
  begin
     id 22 
     name lfingers
     direction 1 -4.49068e-011 1.95576e-027   
     length 0.599754   
     axis -1.24794e-015 90 90   XYZ
    dof rx
    limits (0.0 90.0)
  end
  begin
     id 23
     name lthumb
     direction 0.707107 -6.34883e-011 0.707107   
     length 0.861131   
     axis -90 45 2.85299e-015   XYZ
    dof rx rz
    limits (-45.0 45.0)
           (-45.0 45.0)
  end
  begin
     id 24 
     name rclavicle
     direction -0.957921 0.286916 0.00811568   
     length 3.06817  
     axis 0 0 0   XYZ 
    dof ry rz
    limits (-10.0 20.0)
           (-20.0 0.0)
  end
  begin
     id 25 
     name rhumerus
     direction -1 -4.48971e-011 -3.07942e-027  
     length 4.77254   
     axis 180 30 90   XYZ
    dof rx ry rz
    limits (-90.0 60.0)
           (-90.0 90.0)
           (-90.0 90.0)
  end
  begin
     id 26 
     name rradius
     direction -1 -4.48957e-011 -9.6815e-028   
     length 2.75995   
     axis 180 30 90   XYZ
    dof rx
    limits (-10.0 170.0)
  end
  begin
     id 27 
     name rwrist
     direction -1 -4.48979e-011 4.8894e-028   
     length 1.37997   
     axis -2.56392e-016 -90 -90   XYZ
    dof ry
    limits (-180.0 0.0)
  end
  begin
     id 28
     name rhand
     direction -1 -4.48906e-011 9.7788e-028   
     length 0.701619   
     axis -6.23971e-016 -90 -90   XYZ
    dof rx rz
    limits (-90.0 90.0)
           (-45.0 45.0)
  end
  begin
     id 29
     name rfingers
     direction -1 -4.49018e-011 1.95576e-027   
     length 0.565663   
     axis -1.24794e-015 -90 -90   XYZ
    dof rx
    limits (0.0 90.0)
  end
  begin
     id 30
     name rthumb
     direction -0.707107 -6.34881e-011 0.707107   
     length 0.812183   
     axis -90 -45 -2.85299e-015   XYZ
    dof rx rz
    limits (-45.0 45.0)
           (-45.0 45.0)
  end
:hierarchy
  begin
    root lhipjoint rhipjoint lowerback
    lhipjoint lfemur
    lfemur ltibia
    ltibia lfoot
    lfoot ltoes
    rhipjoint rfemur
    rfemur rtibia
    rtibia rfoot
    rfoot rtoes
    lowerback upperback
    upperback thorax
    thorax lowerneck lclavicle rclavicle
    lowerneck upperneck
    upperneck head
    lclavicle lhumerus
    lhumerus lradius
    lradius lwrist
    lwrist lhand lthumb
    lhand lfingers
    rclavicle rhumerus
    rhumerus rradius
    rradius rwrist
    rwrist rhand rthumb
    rhand rfingers
  end

#!OML:ASF F:\VICON\USERDATA\INSTALL\rory3\rory3.ASF
:FULLY-SPECIFIED
:DEGREES
81
root -13.3842 15.473 8.78403 -182.521 52.4984 -185.722
lowerback 9.69187 -0.941788 -4.52317
upperback -0.780631 -1.79883 -0.573641
thorax -6.14634 -0.733206 2.20802
lowerneck -13.8693 -7.67859 -11.0231
upperneck 27.3997 -9.12953 6.1445
head 12.1502 -4.22525 2.85428
rclavicle 4.31883e-014 -1.01007e-014
rhumerus -38.7254 -7.30965 -81.4638
rradius 21.8771
rwrist 20.0618
rhand -15.3463 16.1221
rfingers 7.12502
rthumb 10.8308 -13.5787
lclavicle 4.31883e-014 -1.01007e-014
lhumerus -32.8538 11.9429 81.8898
lradius 16.0389
lwrist -11.9112
lhand -12.1078 13.9053
lfingers 7.12502
lthumb 13.9531 43.4171
rfemur -34.3708 10.3153 10.3297
rtibia 24.6671
rfoot -7.86252 -21.3445
rtoes -3.19241
lfemur 19.4567 -10.257 -29.4216
ltibia 6.36111e-015
lfoot -9.80538 4.55505
ltoes -9.02105
82
root -13.2632 15.4694 8.73548 -182.542 52.4302 -185.894
lowerback 9.5207 -0.898795 -4.61354
upperback -0.857475 -1.74848 -0.622519
thorax -6.13333 -0.705745 2.1969
lowerneck -13.8145 -7.73942 -11.0224
upperneck 27.2659 -9.26904 6.29365
head 12.1082 -4.27245 2.88747
rclavicle 6.23202e-014 8.49183e-015
rhumerus -38.7343 -7.97527 -81.0898
rradius 21.4406
rwrist 20.7463
rhand -15.296 16.0553
rfingers 7.12502
rthumb 10.8792 -13.6428
lclavicle 6.23202e-014 8.49183e-015
lhumerus -32.9987 12.214 81.5488
lradius 15.9878
lwrist -12.2778
lhand -11.9859 13.972
lfingers 7.12502
lthumb 14.0705 43.4756
rfemur -34.378 10.3962 10.1774
rtibia 25.0268
rfoot -7.8599 -21.5329
rtoes -2.81125
lfemur 19.8109 -10.1554 -29.3831
ltibia -3.18055e-014
lfoot -9.23318 4.36949
ltoes -10.5192
83
root -13.138 15.467 8.68552 -182.599 52.4443 -186.002
lowerback 9.40358 -0.837813 -4.70772
upperback -0.914089 -1.67405 -0.623303
thorax -6.12975 -0.665637 2.23626
lowerneck -13.8435 -7.79621 -11.0282
upperneck 27.1996 -9.36282 6.33779
head 12.1004 -4.31076 2.8876
rclavicle 2.44171e-014 1.13183e-014
rhumerus -38.7592 -8.76595 -80.5591
rradius 20.9797
rwrist 21.681
rhand -15.2106 16.2906
rfingers 7.12502
rthumb 10.9616 -13.4032
lclavicle 2.44171e-014 1.13183e-014
lhumerus -33.2612 12.3651 81.3
lradius 16.0858
lwrist -12.6147
lhand -11.874 14.1852
lfingers 7.12502
lthumb 14.1784 43.6813
rfemur -34.2414 10.3488 10.2412
rtibia 25.4397
rfoot -7.68288 -21.5817
rtoes -3.09597
lfemur 20.2605 -9.96627 -29.2943
ltibia -1.27222e-014
lfoot -8.64239 4.20298
ltoes -11.1127
84
root -13.0078 15.468 8.63266 -182.48 52.4693 -185.844
lowerback 9.28237 -0.799875 -4.64468
upperback -0.95857 -1.6092 -0.560435
thorax -6.11241 -0.635597 2.25548
lowerneck -13.9585 -7.8126 -10.99
upperneck 27.1805 -9.37376 6.2828
head 12.1119 -4.31785 2.85457
rclavicle 9.0447e-014 5.1684e-015
rhumerus -38.7898 -9.51706 -79.9986
rradius 20.5526
rwrist 22.6206
rhand -15.1146 16.2965
rfingers 7.12502
rthumb 11.0542 -13.3924
lclavicle 9.0447e-014 5.1684e-015
lhumerus -33.4801 12.8266 80.8853
lradius 16.0304
lwrist -13.1439
lhand -11.8509 14.2321
lfingers 7.12502
lthumb 14.2007 43.7267
rfemur -33.9709 10.3128 10.5368
rtibia 25.8402
rfoot -7.6102 -21.7309
rtoes -2.90162
lfemur 20.7872 -9.76371 -29.0707
ltibia 0
lfoot -8.03835 4.12551
ltoes -12.5312
85
root -12.8752 15.4646 8.58004 -182.265 52.4638 -185.582
lowerback 9.15433 -0.849299 -4.4845
upperback -1.03042 -1.65081 -0.492148
thorax -6.11469 -0.660417 2.24093
lowerneck -13.9473 -7.72814 -10.9878
upperneck 27.0977 -9.25372 6.27705
head 12.0636 -4.26689 2.87107
rclavicle 6.31172e-014 7.70291e-015
rhumerus -38.8328 -9.49099 -79.8756
rradius 20.2815
rwrist 22.9326
rhand -15.1433 16.234
rfingers 7.12502
rthumb 11.0265 -13.4564
lclavicle 6.31172e-014 7.70291e-015
lhumerus -33.8075 13.279 80.4424
lradius 16.0158
lwrist -13.1781
lhand -12.0822 14.0201
lfingers 7.12502
lthumb 13.9778 43.5302
rfemur -33.6579 10.2246 10.9486
rtibia 26.2221
rfoot -7.45237 -21.9571
rtoes -2.94447
lfemur 21.3404 -9.59896 -28.7753
ltibia 1.59028e-014
lfoot -7.57268 4.54035
ltoes -15.3884
86
root -12.7379 15.4613 8.52758 -182.034 52.5855 -185.247
lowerback 9.03187 -0.859163 -4.26346
upperback -1.0786 -1.63441 -0.462916
thorax -6.10178 -0.659925 2.14292
lowerneck -13.9021 -7.67412 -11.0243
upperneck 26.9793 -9.2166 6.4263
head 12.0136 -4.23906 2.93948
rclavicle 2.35249e-014 6.80837e-015
rhumerus -38.8435 -9.58533 -79.8083
rradius 19.9928
rwrist 23.2496
rhand -15.1201 16.7269
rfingers 7.12502
rthumb 11.0489 -12.9623
lclavicle 2.35249e-014 6.80837e-015
lhumerus -34.1122 13.657 79.9403
lradius 16.0725
lwrist -13.2119
lhand -12.0816 13.9148
lfingers 7.12502
lthumb 13.9784 43.4248
rfemur -33.3081 10.2519 11.4868
rtibia 26.6505
rfoot -7.25105 -22.2788
rtoes -3.23715
lfemur 21.954 -9.31948 -28.3815
ltibia -2.8625e-014
lfoot -7.14268 4.81847
ltoes -17.2577
87
root -12.5959 15.4644 8.47329 -181.942 52.7415 -185.022
lowerback 8.91207 -0.811982 -4.15089
upperback -1.08096 -1.55266 -0.441816
thorax -6.04365 -0.625017 2.08787
lowerneck -13.9888 -7.6851 -11.0385
upperneck 26.9574 -9.25409 6.52668
head 12.0326 -4.24466 2.9707
rclavicle 1.33721e-013 -4.37326e-015
rhumerus -38.8402 -10.146 -79.4758
rradius 19.7195
rwrist 23.8918
rhand -14.9673 17.1256
rfingers 7.12502
rthumb 11.1963 -12.5557
lclavicle 1.33721e-013 -4.37326e-015
lhumerus -34.3487 13.9617 79.4606
lradius 16.0885
lwrist -13.4861
lhand -11.8478 14.0265
lfingers 7.12502
lthumb 14.2037 43.5209
rfemur -32.9175 10.1473 12.0723
rtibia 27.1835
rfoot -7.18921 -22.5844
rtoes -2.98463
lfemur 22.6022 -9.00153 -28.0455
ltibia -3.49861e-014
lfoot -6.17125 4.17003
ltoes -15.1787
